<?xml version="1.0" encoding="UTF-8"?>
<svg version="1.1" xmlns="http://www.w3.org/2000/svg" width="2000" height="2000">
<path d="M0 0 C660 0 1320 0 2000 0 C2000 660 2000 1320 2000 2000 C1340 2000 680 2000 0 2000 C0 1340 0 680 0 0 Z " fill="#000000" transform="translate(0,0)"/>
<path d="M0 0 C50.81483152 -0.0342718 101.62966388 -0.06610841 152.44450378 -0.08468628 C153.1978053 -0.08496239 153.95110682 -0.08523851 154.72723566 -0.08552299 C171.10252871 -0.09151023 187.47782189 -0.09705039 203.85311525 -0.10213066 C211.88474288 -0.10462511 219.91637047 -0.10721825 227.94799805 -0.10986328 C229.14679809 -0.11025556 229.14679809 -0.11025556 230.36981632 -0.11065576 C256.22656863 -0.11916292 282.08331214 -0.13417386 307.94005913 -0.15259444 C334.53389923 -0.17150551 361.12773447 -0.18378149 387.72158118 -0.18782998 C391.48657972 -0.1884062 395.25157825 -0.18905747 399.01657677 -0.18975449 C399.75750815 -0.18988933 400.49843954 -0.19002418 401.26182339 -0.19016311 C413.13976557 -0.19251716 425.01769262 -0.20176776 436.89562865 -0.21366407 C448.86663573 -0.22550399 460.83762797 -0.22991972 472.8086407 -0.22700275 C479.28272976 -0.2257283 485.75677481 -0.22761046 492.23085594 -0.23841095 C522.90125387 -0.28700322 553.08563633 -0.17251437 583.4375 4.75 C584.2539801 4.87905731 585.07046021 5.00811462 585.91168213 5.14108276 C606.91917457 8.46469331 627.7099404 12.54598936 648 19 C649.79824219 19.52980469 649.79824219 19.52980469 651.6328125 20.0703125 C701.52717753 34.96570749 748.23059423 59.31714518 788 93 C789.50240234 94.22589844 789.50240234 94.22589844 791.03515625 95.4765625 C798.68051292 101.78124802 805.78634866 108.57706209 812.8125 115.5625 C813.68374512 116.42456055 814.55499023 117.28662109 815.45263672 118.17480469 C820.64320621 123.39005827 825.42199772 128.79700189 830.02368164 134.5378418 C831.60139732 136.50340853 833.20228358 138.42566517 834.86328125 140.3203125 C885.58282893 198.40107045 911.66467965 275.97579809 920.75 351.5 C920.92366089 352.92868408 920.92366089 352.92868408 921.10083008 354.38623047 C923.17277448 373.06996938 923.20893686 391.91271957 923.1875 410.6875 C923.18623108 411.83662872 923.18496216 412.98575745 923.18365479 414.16970825 C923.09546091 456.08840525 918.0529162 497.91468967 905.58203125 538.08300781 C904.32747848 542.21503314 903.22156854 546.39155179 902.08984375 550.55859375 C900.9373587 554.19780281 899.57146584 557.68884073 898.13110352 561.22192383 C896.93818448 564.1518236 895.78065907 567.09428058 894.625 570.0390625 C879.49206215 608.19975514 859.32211686 642.50746733 833 674 C832.15620787 675.03251765 831.3124594 676.06507099 830.46875 677.09765625 C824.27048736 684.58968235 817.62185963 691.55934111 810.75 698.4375 C809.91041748 699.27788818 809.07083496 700.11827637 808.20581055 700.98413086 C803.29336287 705.85290371 798.2731819 710.52519891 793 715 C792.3591748 715.54760986 791.71834961 716.09521973 791.05810547 716.65942383 C780.77904596 725.38830388 770.18123922 733.46380331 759 741 C758.32001953 741.45971191 757.64003906 741.91942383 756.93945312 742.39306641 C715.38057533 770.31358035 667.34538907 792.27105317 618.15820312 802.53076172 C615.41628476 803.12691184 612.71102506 803.83441311 609.99902344 804.55273438 C594.12770628 808.73066052 577.95701098 811.12672695 561.6875 813.125 C559.77046265 813.36283203 559.77046265 813.36283203 557.81469727 813.60546875 C537.35577913 816.0266124 517.01451292 817.3019259 496.41577148 817.22705078 C494.14994597 817.22643584 491.88412006 817.22670895 489.61829472 817.2277813 C483.63619462 817.22822658 477.65417711 817.21676847 471.67209625 817.20256042 C466.02622767 817.19103668 460.38037758 817.190627 454.73449707 817.18920898 C438.30215408 817.17877978 421.86982595 817.15085732 405.4375 817.125 C368.663125 817.08375 331.88875 817.0425 294 817 C294 928.87 294 1040.74 294 1156 C273.97722001 1156 273.97722001 1156 270.00024414 1152.19165039 C269.52578857 1151.65403076 269.05133301 1151.11641113 268.5625 1150.5625 C267.4283333 1149.44664477 266.29290403 1148.33207144 265.15625 1147.21875 C264.35574219 1146.39117188 264.35574219 1146.39117188 263.5390625 1145.546875 C261.3617222 1143.35848221 258.98505314 1141.47204188 256.5625 1139.5625 C251.45772157 1135.42003621 246.50377318 1131.11880901 241.54931641 1126.79931641 C237.03627576 1122.87378575 232.44351977 1119.0636817 227.796875 1115.296875 C221.4987264 1110.12465241 215.36109183 1104.75923765 209.18847656 1099.43847656 C202.47359625 1093.65329304 195.72577754 1087.93033706 188.84375 1082.34375 C184.90843967 1079.10036237 181.05180698 1075.76853203 177.18920898 1072.43920898 C173.68764698 1069.42754991 170.15213443 1066.4694105 166.5625 1063.5625 C161.45692535 1059.41939009 156.50199947 1055.1176955 151.54711914 1050.79711914 C147.91262149 1047.63534162 144.24479157 1044.53149794 140.5 1041.5 C136.08331056 1037.92458474 131.78219615 1034.23400652 127.5 1030.5 C122.34148689 1026.00252023 117.11842906 1021.61004548 111.80078125 1017.30078125 C107.3200238 1013.61993587 102.93840814 1009.82486807 98.54296875 1006.04296875 C93.59441284 1001.78648075 88.6052146 997.57832994 83.61767578 993.36767578 C81.97091021 991.97540583 80.32689933 990.57994527 78.68359375 989.18359375 C73.57564412 984.84615897 68.45248368 980.53680082 63.25 976.3125 C59.15942545 972.98447475 55.20937901 969.53723307 51.2890625 966.01171875 C48.86511075 963.88145399 46.38286631 961.84320591 43.875 959.8125 C39.33508519 956.13097245 34.90477416 952.34190802 30.5 948.5 C26.15146211 944.70983468 21.78398442 940.95808254 17.3125 937.3125 C16.50894703 936.62394361 15.70539406 935.93538723 14.877491 935.2259655 C12.09044837 932.91486858 12.09044837 932.91486858 8.9040947 931.48657417 C4.88897889 929.18140099 2.17532126 927.1452986 0 923 C-2.22835843 913.69874036 -1.54779818 903.70714674 -1.39278746 894.19378614 C-1.34075818 890.18847902 -1.35851658 886.18339138 -1.36761475 882.17784119 C-1.37389433 875.24587108 -1.33638312 868.31526072 -1.26876068 861.38363266 C-1.17105738 851.36202358 -1.13996573 841.34106914 -1.12490478 831.31903543 C-1.09866864 815.05769554 -1.01888545 798.79707974 -0.90527344 782.53613281 C-0.79505319 766.74417737 -0.7101479 750.9524189 -0.65917969 735.16015625 C-0.65602701 734.18603593 -0.65287432 733.21191561 -0.64962611 732.2082765 C-0.63396517 727.32119278 -0.61880079 722.43410767 -0.60388327 717.54702163 C-0.47956818 677.03084416 -0.2682864 636.51546359 0 596 C0.93786431 595.99864347 1.87572862 595.99728694 2.84201306 595.99588931 C58.48239761 595.91523706 114.12275727 595.82417483 169.7631029 595.71994839 C176.45054828 595.70743019 183.13799381 595.69499503 189.82543945 595.68261719 C190.4908882 595.68138386 191.15633694 595.68015054 191.8419508 595.67887984 C213.37546767 595.6390153 234.90898867 595.60550139 256.4425211 595.57531309 C279.21716693 595.54335011 301.99179049 595.50408227 324.76641065 595.45720994 C338.39674431 595.42939083 352.02706192 595.4073294 365.65741626 595.39273749 C375.01641831 595.38215915 384.37538922 595.36429867 393.73436775 595.34083296 C399.12621251 595.32752529 404.51801381 595.31731196 409.90987587 595.31578636 C414.86090163 595.31431406 419.81182301 595.30355438 424.76281659 595.28586559 C426.53975395 595.28107478 428.31670401 595.27949161 430.09364643 595.28172119 C447.96015731 595.30043426 465.63781306 593.86903591 483.1875 590.4375 C484.15641174 590.24917099 484.15641174 590.24917099 485.14489746 590.05703735 C528.15235356 581.57629774 569.85910878 560.02708934 594.73876953 522.93701172 C606.42974198 504.98188678 613.63763368 485.6537468 619 465 C619.25547607 464.07429199 619.51095215 463.14858398 619.77416992 462.19482422 C621.82890004 454.50915364 622.92671207 446.91261192 623.6875 439 C623.8127002 437.69836914 623.93790039 436.39673828 624.06689453 435.05566406 C628.5839742 385.48950539 621.24338558 329.75488571 589.02148438 289.83447266 C586.75952726 287.14777762 584.40108232 284.56245376 582 282 C581.46503906 281.42266113 580.93007812 280.84532227 580.37890625 280.25048828 C572.32360009 271.63475233 563.91671176 264.3765297 554 258 C553.38382813 257.59330078 552.76765625 257.18660156 552.1328125 256.76757812 C533.51015913 244.58684261 512.18111223 237.0133406 490.5 232.4375 C489.53191406 232.22931641 488.56382812 232.02113281 487.56640625 231.80664062 C484.71258313 231.19565433 481.85805587 230.59090893 479 230 C478.31929601 229.84800612 477.63859201 229.69601225 476.93726063 229.5394125 C451.59691688 224.09698462 424.47425541 225.76020774 398.71872902 225.84786606 C391.88763128 225.87015626 385.05663618 225.87021166 378.22550964 225.86599731 C375.86978246 225.86480478 373.51405526 225.86363574 371.15832806 225.8624897 C369.98078406 225.86190945 368.80324006 225.8613292 367.59001291 225.86073136 C351.7361045 225.85473825 335.88238778 225.86744137 320.02856445 225.92089844 C309.25902929 225.95703424 298.48987305 225.96479355 287.7202999 225.94040024 C282.04376955 225.92874488 276.3680914 225.93167266 270.69165993 225.96990585 C265.37137237 226.00565333 260.05238212 226.00425982 254.73206902 225.97467613 C252.78664288 225.97046498 250.84113045 225.97983469 248.89585114 226.00410271 C232.40397108 226.19735009 232.40397108 226.19735009 225.99272156 221.13259888 C224.62922022 219.78732007 223.29416446 218.41210812 222 217 C220.79627498 215.95404674 219.58134446 214.92059454 218.34765625 213.91015625 C217.25140208 212.96232604 216.15634802 212.01310602 215.0625 211.0625 C210.91867905 207.48497128 206.75141879 203.94997313 202.5 200.5 C197.65403211 196.5662143 192.91901472 192.51552241 188.19140625 188.44140625 C184.66682097 185.41041716 181.10951168 182.43007419 177.5 179.5 C172.65403211 175.5662143 167.91901472 171.51552241 163.19140625 167.44140625 C159.66682097 164.41041716 156.10951168 161.43007419 152.5 158.5 C147.65403211 154.5662143 142.91901472 150.51552241 138.19140625 146.44140625 C134.66682097 143.41041716 131.10951168 140.43007419 127.5 137.5 C122.09637098 133.11054182 116.81961545 128.58317191 111.54296875 124.04296875 C106.59441284 119.78648075 101.6052146 115.57832994 96.61767578 111.36767578 C94.97091021 109.97540583 93.32689933 108.57994527 91.68359375 107.18359375 C86.67765348 102.93259941 81.6595962 98.70435708 76.5625 94.5625 C71.84360086 90.72201066 67.22767519 86.77456651 62.62231445 82.79980469 C57.89073742 78.73043049 53.08096257 74.7630734 48.25 70.8125 C42.80767902 66.35936253 37.49607672 61.81649605 32.30859375 57.06640625 C28.94732925 54.05776172 25.44286928 51.23659161 21.9375 48.3984375 C18.11466644 45.27713456 14.35133381 42.08864674 10.59057617 38.89306641 C8.04675692 36.73168283 5.78784938 34.88583677 2.83325195 33.29589844 C0.32623963 31.20855994 0.01096137 30.07292813 -0.48323059 26.78497314 C-0.59164315 22.7361321 -0.52329612 18.73299951 -0.375 14.6875 C-0.34488282 13.26502997 -0.31751005 11.84249902 -0.29296875 10.41992188 C-0.22706199 6.94534317 -0.12364151 3.47305835 0 0 Z " fill="#FEFEFE" transform="translate(537,419)"/>
<path d="M0 0 C6.33333333 0.48717949 6.33333333 0.48717949 9.4375 2.875 C11 5 11 5 11 8 C12.32 8.33 13.64 8.66 15 9 C14.67 9.99 14.34 10.98 14 12 C11.66372963 10.19117843 9.33092238 8.37818954 7 6.5625 C6.33226562 6.04623047 5.66453125 5.52996094 4.9765625 4.99804688 C3.29922866 3.68869954 1.64735006 2.34687677 0 1 C0 0.67 0 0.34 0 0 Z " fill="#BDBDBD" transform="translate(541,452)"/>
</svg>
