<?xml version="1.0" encoding="UTF-8"?>
<svg version="1.1" xmlns="http://www.w3.org/2000/svg" width="2000" height="2000">
<path d="M0 0 C51.01615217 -0.05142552 102.03230619 -0.09917802 153.04847717 -0.12702942 C153.80517956 -0.12744359 154.56188195 -0.12785776 155.34151472 -0.12828448 C171.79209952 -0.13726606 188.2426846 -0.1455762 204.69327008 -0.15319599 C212.76222894 -0.15693755 220.83118773 -0.16082727 228.90014648 -0.16479492 C230.10449649 -0.16538334 230.10449649 -0.16538334 231.3331768 -0.16598364 C257.29350172 -0.17873651 283.25380688 -0.20124697 309.21411985 -0.22889166 C335.92217844 -0.25728054 362.63022612 -0.27567735 389.33829954 -0.28174497 C393.12245548 -0.28260926 396.90661139 -0.28358617 400.69076729 -0.28463173 C401.80778174 -0.28493513 401.80778174 -0.28493513 402.94736214 -0.28524467 C414.8687602 -0.288771 426.79012422 -0.30263384 438.71150848 -0.3204961 C450.73639312 -0.33828798 462.7612445 -0.34487176 474.78614181 -0.34050413 C481.28529188 -0.33844241 487.78436277 -0.3413645 494.28349686 -0.35761642 C594.27905327 -0.59487667 692.70144178 19.43431046 784 89 C785.0003125 89.82757813 786.000625 90.65515625 787.03125 91.5078125 C801.90591173 103.89515497 816.62544155 117.07117397 829 132 C829.4439209 132.53012695 829.8878418 133.06025391 830.34521484 133.60644531 C880.7527766 193.9390653 909.48667149 266.34944406 920 344 C920.2477417 345.75425293 920.2477417 345.75425293 920.50048828 347.54394531 C923.16929871 367.29921425 923.31168165 387.12403192 923.36791611 407.0238533 C923.37485011 409.08054136 923.38649932 411.13715673 923.39907837 413.19381714 C923.61596276 460.9626956 916.71016788 508.77554023 901 554 C900.68949707 554.9065332 900.37899414 555.81306641 900.05908203 556.74707031 C895.43273834 570.18202877 890.10887669 583.17313554 884 596 C883.41629639 597.23314941 883.41629639 597.23314941 882.82080078 598.49121094 C862.90146762 640.28835328 833.66124554 680.72813003 798.35546875 710.98046875 C796.57321733 712.50853506 794.80786565 714.05634156 793.05078125 715.61328125 C729.19255796 771.87976767 645.10128192 803.34789885 538 816 C537.03928369 816.0832937 536.07856737 816.16658741 535.08873844 816.25240517 C523.48324644 817.14428987 511.91007815 817.13401392 500.27563477 817.11352539 C497.98098979 817.11321851 495.68634472 817.11335347 493.39169979 817.11389065 C487.28678775 817.11411497 481.1818956 817.10834952 475.07698822 817.10128021 C469.33318524 817.09555477 463.58938693 817.09531544 457.84558105 817.09460449 C441.08455144 817.08937219 424.32352546 817.07541094 407.5625 817.0625 C370.086875 817.041875 332.61125 817.02125 294 817 C294 928.87 294 1040.74 294 1156 C287.4 1156 280.8 1156 274 1156 C274 1155.34 274 1154.68 274 1154 C273.47148438 1153.78214844 272.94296875 1153.56429688 272.3984375 1153.33984375 C269.10843559 1151.50194366 266.43300696 1149.04695703 263.625 1146.5625 C258.00079344 1141.64413512 252.24007234 1136.96914919 246.26806641 1132.47875977 C244.81043121 1131.3634194 243.39982544 1130.18708602 242 1129 C242 1128.34 242 1127.68 242 1127 C241.47792969 1126.78859375 240.95585938 1126.5771875 240.41796875 1126.359375 C236.99917155 1124.43733716 234.22579165 1121.84632308 231.3125 1119.25 C225.76924559 1114.37442624 220.15347482 1109.60936022 214.4375 1104.9375 C206.86085652 1098.73485036 199.41037292 1092.3996757 192 1086 C184.68852724 1079.6944547 177.35524434 1073.43726609 169.85546875 1067.35546875 C165.85133411 1064.05246849 161.93471169 1060.65052286 158.01123047 1057.25244141 C154.80243425 1054.48963472 151.55782456 1051.86000043 148.125 1049.375 C146.578125 1048.199375 146.578125 1048.199375 145 1047 C145 1046.34 145 1045.68 145 1045 C144.401875 1044.71125 143.80375 1044.4225 143.1875 1044.125 C141 1043 141 1043 138 1041 C138 1040.34 138 1039.68 138 1039 C137.21302734 1038.67708984 137.21302734 1038.67708984 136.41015625 1038.34765625 C133.05462894 1036.47138895 130.30916687 1033.96506735 127.4375 1031.4375 C126.17664893 1030.34144897 124.91492167 1029.24640511 123.65234375 1028.15234375 C122.72010986 1027.34385986 122.72010986 1027.34385986 121.76904297 1026.51904297 C119.38119681 1024.46864567 116.94585215 1022.48066779 114.5 1020.5 C109.09923828 1016.11287098 103.825323 1011.58776588 98.55078125 1007.05078125 C91.21036699 1000.73750339 83.83477128 994.47099793 76.3125 988.375 C71.91417214 984.79777821 67.70701146 981.05402459 63.515625 977.23828125 C60.09234677 974.19241413 56.53684698 971.32473523 52.9765625 968.44140625 C49.65215635 965.71469517 46.38401965 962.92919978 43.125 960.125 C26.60405809 945.35406023 26.60405809 945.35406023 9 932 C9 931.34 9 930.68 9 930 C8.443125 929.7525 7.88625 929.505 7.3125 929.25 C4.50443619 927.73212767 2.32187538 926.20533934 0 924 C-0.62099248 921.39364839 -0.62099248 921.39364839 -0.61523914 918.36969376 C-0.62519439 917.21569242 -0.63514963 916.06169108 -0.64540654 914.87272 C-0.62356023 912.97001407 -0.62356023 912.97001407 -0.60127258 911.02886963 C-0.60345256 909.66835299 -0.60782973 908.30783839 -0.61421841 906.947335 C-0.62541626 903.20498653 -0.60537558 899.46335144 -0.58032811 895.72109389 C-0.55876701 891.68704337 -0.56604044 887.65303418 -0.56983948 883.61894226 C-0.57246323 876.62840466 -0.55675514 869.63810013 -0.52865028 862.64762115 C-0.4880418 852.5405612 -0.47499579 842.43361412 -0.46871033 832.32648143 C-0.45776297 815.92901616 -0.42447682 799.53167514 -0.37719727 783.13427734 C-0.33131309 767.20427066 -0.29591559 751.2742977 -0.2746582 735.34423828 C-0.27334459 734.36256763 -0.27203097 733.38089698 -0.27067754 732.36947873 C-0.26415243 727.44480204 -0.25783387 722.52012511 -0.25161803 717.59544802 C-0.19977128 676.73021223 -0.11169399 635.86511322 0 595 C0.89364632 595.00037972 1.78729263 595.00075944 2.70801914 595.00115067 C55.76005528 595.02356483 108.81209091 595.04070476 161.86413085 595.05106533 C168.24470703 595.05231593 174.62528321 595.05361026 181.00585938 595.05493164 C182.91111803 595.05532511 182.91111803 595.05532511 184.85486676 595.05572652 C205.37822484 595.06006904 225.9015801 595.06794875 246.42493652 595.0771528 C267.50883326 595.08652885 288.59272854 595.09206396 309.67662728 595.09408849 C322.66973003 595.09545553 335.66282481 595.09976153 348.65592511 595.10791647 C357.58510596 595.11323273 366.51428273 595.11479327 375.44346504 595.11350138 C380.58276773 595.11286558 385.72205656 595.11378853 390.86135674 595.11920547 C458.13686933 595.18632068 527.01466776 592.21845891 578 542.375 C600.90632957 519.38779528 613.81422065 489.24347979 620.25 457.8125 C620.40106201 457.07870117 620.55212402 456.34490234 620.70776367 455.58886719 C623.59265729 440.54771851 624.37691488 425.65527813 624.3125 410.375 C624.31034485 409.45179962 624.3081897 408.52859924 624.30596924 407.5774231 C624.25343108 393.52984189 623.80337077 379.80779747 621 366 C620.80132324 364.99807617 620.60264648 363.99615234 620.39794922 362.96386719 C611.64352138 320.11635297 590.27808303 282.8277182 553.4921875 258.25390625 C504.08594141 226.02087941 446.12773476 225.70649202 389.25827026 226.13879204 C382.81813926 226.18646159 376.37798893 226.21778928 369.93774414 226.24537659 C368.84265502 226.25011582 367.7475659 226.25485506 366.61929226 226.25973791 C364.38414535 226.26933446 362.14899819 226.27887249 359.91385078 226.28835309 C344.96447498 226.35191107 330.01541425 226.4240756 315.06640625 226.54858398 C304.91559145 226.63300958 294.76506126 226.68901362 284.61391544 226.71203762 C279.26251861 226.72527964 273.91207203 226.75281956 268.56100464 226.81527519 C263.54374165 226.87359985 258.52771446 226.89431253 253.51013184 226.88656807 C251.6759117 226.89035156 249.8416585 226.90776856 248.00772095 226.94018555 C232.46651349 227.20219042 232.46651349 227.20219042 226.05859375 222.13734436 C224.67501584 220.78904456 223.31836963 219.41212666 222 218 C220.79528511 216.95518701 219.58023356 215.92194937 218.34765625 214.91015625 C217.25141298 213.96231344 216.15635858 213.01309387 215.0625 212.0625 C210.0308165 207.71928358 204.93761488 203.46769607 199.77734375 199.27734375 C196.65603533 196.71795864 193.57553365 194.11402333 190.5 191.5 C185.62999402 187.36249786 180.7118304 183.29078089 175.7578125 179.25390625 C168.83061506 173.59244319 161.9550574 167.87505051 155.23828125 161.96484375 C147.00287775 154.73551049 138.76315539 147.59513843 129.91137695 141.12182617 C128.5731673 140.12586641 127.28116318 139.06834537 126 138 C126 137.34 126 136.68 126 136 C125.21302734 135.67708984 125.21302734 135.67708984 124.41015625 135.34765625 C121.05462345 133.47138589 118.30919302 130.96504351 115.4375 128.4375 C114.17793997 127.34276361 112.91751466 126.24902202 111.65625 125.15625 C111.03492188 124.61742187 110.41359375 124.07859375 109.7734375 123.5234375 C107.36225841 121.4521603 104.90532091 119.44078991 102.4375 117.4375 C94.39532781 110.9002957 86.51813893 104.16950118 78.66137695 97.41137695 C73.11658101 92.64256448 67.52235619 87.95344208 61.84375 83.34375 C57.9092341 80.10101712 54.053543 76.76968392 50.19140625 73.44140625 C46.66682097 70.41041716 43.10951168 67.43007419 39.5 64.5 C33.51521145 59.63681165 27.67505649 54.61236589 21.83349609 49.57910156 C18.72592986 46.90270498 15.61303043 44.23253667 12.5 41.5625 C11.93692139 41.07869873 11.37384277 40.59489746 10.79370117 40.09643555 C9.98316284 39.40094604 9.98316284 39.40094604 9.15625 38.69140625 C8.69025391 38.29123291 8.22425781 37.89105957 7.74414062 37.47875977 C5.83697299 35.81424791 5.83697299 35.81424791 2.9276123 33.86192322 C0.29982218 31.66089749 0.03294855 31.16510883 -0.68115234 27.58666992 C-0.64973145 26.31412354 -0.61831055 25.04157715 -0.5859375 23.73046875 C-0.57744781 23.04946609 -0.56895813 22.36846344 -0.56021118 21.66682434 C-0.52679302 19.50539515 -0.45155986 17.3477881 -0.375 15.1875 C-0.34488432 13.71685102 -0.31751129 12.24614316 -0.29296875 10.77539062 C-0.22704737 7.18236532 -0.12361723 3.59155606 0 0 Z " fill="#FFFFFF" transform="translate(537,419)"/>
</svg>
