<?xml version="1.0" encoding="utf-8"?>
<!-- Generator: Adobe Illustrator 29.2.1, SVG Export Plug-In . SVG Version: 9.03 Build 55982)  -->
<svg version="1.0" id="logo" xmlns="http://www.w3.org/2000/svg" xmlns:xlink="http://www.w3.org/1999/xlink" x="0px" y="0px"
	 viewBox="0 0 2000 2000" style="enable-background:new 0 0 2000 2000;" xml:space="preserve">
<path id="_x37_" d="M970,888l42.5,175l43.5-175h78l-77,239.5c-12.8,34.3-31.6,60.2-68.3,70.7c-24.8,7.2-50.2,5.7-75.8,5.7v-56h21.5
	c2.8,0,10.1-1.9,13.3-2.7c12.2-3.4,19.5-11.6,19.2-24.7L888,888H970z"/>
<path id="_x36_" d="M870,1119h-72v-33c-4.9,6-8.5,11.8-14.5,17c-44.6,38-129.8,17.9-133.5-46.4c-2.7-45.7,31.4-66.5,71.8-73.3
	c24.6-4.1,51.2-3.4,76.2-5.3v-19.5c0-0.9-3.7-9.1-4.6-10.4c-13.6-20-62.8-15.4-64.4,12.9h-67c2.6-84.8,132.4-98,184-53.5
	c10.4,9,24,30,24,44V1119z M798,1020l-38.5,2c-12.5,1.2-30.7,3.8-35.2,17.8c-11.5,35.4,49.4,40.8,67.9,13.9c1.4-2,5.8-10.5,5.8-12.2
	V1020z"/>
<path id="_x35_" d="M479,1031v88l-6.6-0.9l-69.4-58.6V974l110.5,0c37.2,0.2,58.2-26.6,49.8-62.9c-10.8-46.7-69.6-30.9-104.3-34.7
	l-54.6-48.4c-2.4-2.4-1.2-6-1.4-9.1l141.5,0c120.1,5.8,134.9,182.3,16.7,208.7C534.4,1033.7,506.4,1030,479,1031z"/>
<path id="_x34_" d="M1447,888c9.6,20,18.3,40.5,28.1,60.4c1.2,2.5,5.9,13.6,8.3,13.7l34.5-74h80l-68.9,114.5L1598,1119h-79.5l-39-76
	l-2.6,0.6l-37.4,75.4H1363l69.8-114.7L1363,888H1447z"/>
<rect id="_x33_" x="1155" y="804" width="74" height="315"/>
<rect id="_x32_" x="1267" y="888" width="74" height="231"/>
<path id="_x31_" d="M1297.8,796.3c53.4-6.4,60,68.1,9.6,72.6C1257.7,873.3,1251.2,801.9,1297.8,796.3z"/>
</svg>
